# xmcd
#
# Track frame offsets:
#	150
#	17237
#	30987
#	49000
#	60818
#	75204
#	90254
#	102492
#	116483
#	130158
#	144644
#	161587
#	175757
#
# Disc length: 2513 seconds
#
# Revision: 1
# Processed by: cddbd v1.5.1PL0 Copyright (c) Steve Scherf et al.
# Submitted via: audiograbber 1.81.03
#
DISCID=9109cf0d
DTITLE=Jimmy Roselli - ROCK-A-BYE YOUR BABY
DYEAR=1900
DGENRE=
TTITLE0=Rock-A-Bye Your Baby
TTITLE1=Somewhere Along the Way
TTITLE2=Little Pal
TTITLE3=Ida
TTITLE4=Cry
TTITLE5=Because You're Mine
TTITLE6=I Surrender Dear
TTITLE7=You Maske Me Feel So Young
TTITLE8=My Mother's Eyes
TTITLE9=I Apologize
TTITLE10=Sweet Lorraine
TTITLE11=That's My Desire
TTITLE12=Prisoner of Love
EXTD=
EXTT0=
EXTT1=
EXTT2=
EXTT3=
EXTT4=
EXTT5=
EXTT6=
EXTT7=
EXTT8=
EXTT9=
EXTT10=
EXTT11=
EXTT12=
PLAYORDER=
